<svg width="800" height="600" viewBox="0 0 800 600" fill="none" xmlns="http://www.w3.org/2000/svg">
<g clip-path="url(#clip0_244_97)">
<path d="M250 150H550V450H250V150Z" fill="#9747FF"/>
<path d="M525.447 378.451C523.251 364.762 514.325 353.27 487.89 342.548C478.707 338.327 468.469 335.305 465.418 328.346C464.334 324.297 464.192 322.015 464.876 319.563C466.844 311.606 476.34 309.126 483.869 311.407C488.717 313.032 493.308 316.768 496.074 322.728C509.021 314.344 508.992 314.401 518.032 308.641C514.724 303.508 512.956 301.141 510.789 298.945C503.004 290.247 492.395 285.77 475.428 286.112C472.49 286.483 469.525 286.882 466.587 287.253C458.118 289.392 450.047 293.841 445.313 299.801C431.112 315.913 435.161 344.116 452.443 355.723C469.467 368.498 494.477 371.407 497.671 383.356C500.779 397.985 486.92 402.719 473.146 401.036C462.994 398.926 457.348 393.765 451.245 384.382C440.01 390.884 440.01 390.884 428.46 397.529C431.198 403.517 434.078 406.227 438.669 411.417C460.399 433.46 514.781 432.377 524.534 399.012C524.933 397.871 527.557 390.228 525.447 378.451ZM413.089 287.88H385.028C385.028 312.12 384.915 336.188 384.915 360.428C384.915 375.856 385.713 390 383.204 394.335C379.097 402.861 368.46 401.806 363.612 400.152C358.679 397.728 356.169 394.277 353.261 389.401C352.462 388.004 351.863 386.92 351.663 386.835C344.05 391.483 336.464 396.159 328.85 400.808C332.643 408.593 338.232 415.352 345.39 419.743C356.083 426.159 370.456 428.127 385.485 424.677C395.266 421.825 403.707 415.922 408.127 406.939C414.515 395.162 413.146 380.903 413.089 365.133C413.232 339.411 413.089 313.688 413.089 287.88Z" fill="white"/>
</g>
<defs>
<clipPath id="clip0_244_97">
<rect width="300" height="300" fill="white" transform="translate(250 150)"/>
</clipPath>
</defs>
</svg>
