<svg width="800" height="600" viewBox="0 0 800 600" fill="none" xmlns="http://www.w3.org/2000/svg">
<g clip-path="url(#clip0_244_110)">
<path d="M363.831 283.065L363.831 283.06L360.632 294.398L363.831 283.065ZM379.377 324.611H379.381L358.26 324.688L379.377 324.611ZM381.229 323.172L384.907 309.141L381.229 323.175V323.172ZM441.374 258.555L436.172 282.625L441.374 258.553V258.555Z" fill="#9747FF"/>
<path d="M457.818 257.106H443.163C442.35 257.106 441.543 257.759 441.369 258.554L436.166 282.625L430.963 306.698C430.79 307.492 429.985 308.142 429.172 308.142H418.798C408.536 308.142 409.722 301.044 411.824 291.319L411.887 291.026L412.117 289.8L412.161 289.569L412.628 287.073L413.13 284.398C413.283 283.592 413.514 282.413 413.667 281.673L416.032 270.116L418.398 258.559C418.562 257.762 418.028 257.108 417.215 257.108H402.172C401.359 257.108 400.554 257.762 400.387 258.557L397.153 273.903L393.918 289.247C393.916 289.253 393.915 289.263 393.914 289.269L393.613 290.695C389.888 307.704 390.876 323.924 411.124 324.432C411.455 324.441 411.711 324.444 411.711 324.444H443.494C444.307 324.444 445.112 323.792 445.283 322.995L452.136 290.777L458.99 258.557C459.158 257.759 458.632 257.107 457.818 257.106ZM516.284 308.309C517.099 308.309 517.631 308.961 517.468 309.758L516.045 316.714M514.623 323.672L516.046 316.713L514.623 323.675L514.623 323.672ZM512.839 325.136L512.846 325.134C508.533 325.169 495.572 325.268 485.831 325.268C497.686 325.268 512.838 325.137 512.839 325.136ZM477.087 299.35C477.076 298.588 477.943 297.276 478.758 297.276L476.927 297.245C476.102 305.541 477.087 299.35 477.087 299.35Z" fill="#9747FF"/>
<path d="M516.284 308.308C517.099 308.308 517.631 308.961 517.468 309.758L516.045 316.714L515.813 317.848M494.047 325.248C492.861 325.253 491.677 325.257 490.511 325.26C491.677 325.258 492.863 325.253 494.047 325.248ZM514.623 323.676L515.816 317.849L514.623 323.68L514.623 323.676ZM273.603 299.524L275.88 289.433L273.276 300.968L270.779 312.719L272.968 302.418C273.136 301.621 273.423 300.318 273.603 299.524ZM300.851 256.936H284.756C283.941 256.936 283.13 257.586 282.947 258.378L281.42 265.114L279.894 271.853C279.715 272.645 280.233 273.295 281.047 273.295H297.267C298.081 273.295 298.888 272.645 299.064 271.85L300.538 265.114L302.014 258.383V258.381C302.189 257.587 301.666 256.936 300.851 256.936ZM297.348 279.344V279.342L292.628 301.18L297.348 279.344ZM250.593 351.703C250.593 351.703 258.706 351.807 263.862 351.807C259.946 351.807 253.474 351.736 250.586 351.702L250.593 351.703Z" fill="#9747FF"/>
<path d="M296.184 277.897H279.962C279.149 277.897 278.336 278.547 278.156 279.342L275.877 289.434L273.6 299.525C273.421 300.319 273.134 301.622 272.965 302.419L270.776 312.72L268.589 323.02C268.373 323.982 268.113 324.932 267.808 325.869C267.808 325.869 264.778 334.886 259.683 334.784C259.466 334.779 259.256 334.777 259.047 334.772C256.578 334.725 254.638 334.691 254.638 334.691H254.634C253.822 334.678 253.006 335.312 252.816 336.102L251.134 343.174L249.453 350.242C249.265 351.032 249.775 351.685 250.584 351.699C253.473 351.733 259.944 351.806 263.861 351.806C276.587 351.806 283.296 344.755 287.596 324.465L292.629 301.18L297.349 279.341C297.521 278.548 296.996 277.897 296.184 277.897ZM526.62 324.441C525.806 324.441 525.279 323.789 525.45 322.991L537.653 265.833" fill="#9747FF"/>
<path d="M525.628 323.717C525.529 323.319 525.587 322.344 525.76 321.546L531.551 294.414L525.449 322.993C525.278 323.79 525.805 324.442 526.62 324.442H528.102C527.287 324.441 525.725 324.116 525.628 323.717ZM542.616 324.116C542.173 324.295 541.143 324.442 540.329 324.442H541.811C542.626 324.442 543.423 323.79 543.585 322.991L543.879 321.541C543.715 322.337 543.06 323.936 542.616 324.116ZM546.052 310.792L548.23 300.024C548.229 300.031 548.228 300.041 548.226 300.045L546.052 310.792ZM594.201 269.662L594.872 272.44C595.058 273.235 594.544 273.88 593.733 273.882M548.228 300.025C548.39 299.228 548.658 297.937 548.827 297.148L551.154 286.248L548.519 298.595L548.228 300.025ZM537.854 264.897C537.692 265.666 537.484 266.638 537.348 267.281L531.557 294.414L537.658 265.834L537.854 264.897Z" fill="#9747FF"/>
<path d="M594.868 272.44L594.196 269.663L593.531 266.818L593.194 265.377C591.876 260.259 588.008 257.304 579.611 257.304L566.535 257.29L554.494 257.276H540.946C540.132 257.276 539.328 257.926 539.16 258.722H539.159L538.56 261.553L537.853 264.896L537.656 265.833L531.554 294.413L525.763 321.544C525.59 322.342 525.533 323.317 525.631 323.715C525.73 324.114 527.29 324.441 528.105 324.441H540.329C541.144 324.441 542.174 324.294 542.616 324.114C543.059 323.935 543.715 322.336 543.877 321.539L546.05 310.791L548.225 300.045L548.228 300.024L548.519 298.593L551.155 286.246L553.481 275.341C553.654 274.549 554.456 273.901 555.267 273.899L593.729 273.88C594.54 273.88 595.054 273.234 594.868 272.44Z" fill="#9747FF"/>
<path d="M644.382 247.327C643.567 247.333 642.237 247.338 641.422 247.338H629.111C628.296 247.338 627.255 247.887 626.795 248.559L599.574 288.44C599.114 289.114 598.59 289.014 598.408 288.222L596.405 279.434C596.225 278.639 595.409 277.992 594.596 277.992H577.094C576.28 277.992 575.798 278.631 576.02 279.413L583.863 306.885C584.086 307.667 584.102 308.954 583.901 309.742L580.483 323.038C580.28 323.827 580.781 324.473 581.596 324.473H598.891C599.705 324.473 600.537 323.827 600.739 323.038L604.159 309.742C604.36 308.954 604.926 307.775 605.416 307.125L649.61 248.469C650.101 247.819 649.834 247.291 649.022 247.296L644.382 247.327ZM505.347 281.732L505.346 281.715C505.244 282.598 504.429 283.246 503.617 283.246H481.429C480.662 283.246 480.272 282.724 480.385 282.081C480.392 282.062 480.395 282.046 480.405 282.029C480.405 282.029 480.398 282.031 480.391 282.036C480.396 282.01 480.396 281.986 480.403 281.962L480.504 281.584C482.624 275.95 486.94 272.252 495.052 272.252C504.185 272.253 505.967 276.715 505.347 281.732ZM498.838 256.122C470.358 256.122 463.61 273.408 459.824 290.856C456.038 308.639 456.364 325.266 485.834 325.266H486.881C486.974 325.264 487.069 325.264 487.162 325.264H489.063C489.178 325.262 489.292 325.262 489.408 325.262L490.296 325.26H490.505C491.672 325.258 492.855 325.253 494.041 325.249H494.1C501.883 325.218 509.689 325.159 512.85 325.134C513.659 325.122 514.45 324.47 514.616 323.681L515.809 317.849L516.041 316.715L517.465 309.76C517.628 308.962 517.095 308.309 516.282 308.309H489.786C479.248 308.309 476.12 305.509 477.273 297.277H519.626L519.622 297.281C519.632 297.281 519.642 297.277 519.651 297.277C520.323 297.264 520.946 296.801 521.193 296.184C521.24 296.065 521.28 295.942 521.295 295.814L521.29 295.818C527.579 272.098 525.775 256.124 498.835 256.124L498.838 256.122ZM364.232 281.641L363.831 283.06L363.83 283.065L360.632 294.398L357.434 305.73C357.214 306.512 356.368 307.153 355.552 307.153H338.625C325.787 307.153 322.66 297.112 325.787 282.299C328.912 267.149 335.042 257.731 347.679 256.777C364.946 255.476 368.401 267.621 364.232 281.641ZM375.84 306.281C375.84 306.281 383.82 286.904 385.634 275.711C388.105 260.729 380.603 239 351.628 239C322.818 239 310.308 259.745 305.534 282.298C300.761 305.013 307.015 324.935 335.661 324.772L358.26 324.688L379.382 324.611C380.196 324.604 381.027 323.958 381.234 323.173L384.912 309.139C385.117 308.351 384.62 307.703 383.807 307.699L380.281 307.679L376.756 307.658C376.063 307.653 375.667 307.205 375.751 306.611C375.767 306.497 375.796 306.386 375.838 306.279L375.84 306.281Z" fill="#9747FF"/>
<path d="M518.46 293.312C518.46 293.57 518.358 293.817 518.176 293.999C517.993 294.181 517.746 294.284 517.489 294.284C517.231 294.284 516.984 294.181 516.802 293.999C516.619 293.817 516.517 293.57 516.517 293.312C516.517 293.054 516.619 292.807 516.802 292.625C516.984 292.443 517.231 292.341 517.489 292.341C517.746 292.341 517.993 292.443 518.176 292.625C518.358 292.807 518.46 293.054 518.46 293.312Z" fill="#9747FF"/>
<path d="M155.85 268.117C147.895 279.551 148.885 294.426 154.962 306.574C155.106 306.866 155.258 307.152 155.407 307.439C155.503 307.62 155.592 307.807 155.692 307.986C155.748 308.093 155.81 308.199 155.869 308.301C155.972 308.494 156.079 308.679 156.186 308.867C156.374 309.201 156.568 309.531 156.765 309.862C156.875 310.043 156.984 310.226 157.097 310.407C157.315 310.761 157.54 311.11 157.77 311.461C157.866 311.61 157.958 311.759 158.057 311.904C158.374 312.376 158.698 312.847 159.031 313.311L159.059 313.349C159.112 313.423 159.17 313.495 159.224 313.569C159.513 313.968 159.811 314.361 160.112 314.751C160.223 314.892 160.335 315.035 160.447 315.176C160.82 315.642 161.198 316.104 161.582 316.561C161.963 317.011 162.352 317.455 162.748 317.891C162.766 317.91 162.779 317.921 162.792 317.94C163.588 318.803 164.41 319.641 165.258 320.452C165.385 320.573 165.511 320.697 165.637 320.813C166.061 321.212 166.492 321.604 166.93 321.988C167.003 322.053 167.078 322.115 167.151 322.177C167.53 322.506 167.917 322.832 168.306 323.152C168.464 323.281 168.626 323.407 168.785 323.534C169.103 323.789 169.424 324.04 169.749 324.287L170.263 324.678C170.621 324.94 170.981 325.2 171.345 325.454C171.478 325.549 171.605 325.642 171.739 325.733C171.776 325.758 171.809 325.785 171.847 325.81C172.191 326.048 172.544 326.276 172.896 326.505C173.048 326.605 173.198 326.71 173.352 326.807C173.892 327.15 174.442 327.488 174.996 327.814C175.146 327.901 175.299 327.985 175.45 328.071C175.859 328.307 176.268 328.537 176.684 328.764C176.909 328.885 177.141 328.999 177.367 329.115C177.661 329.269 177.952 329.425 178.251 329.574C178.317 329.606 178.388 329.639 178.455 329.672C178.574 329.731 178.695 329.786 178.816 329.847C179.377 330.117 179.942 330.377 180.511 330.629C181.051 330.863 181.595 331.09 182.143 331.306C182.275 331.361 182.408 331.411 182.541 331.463C183.115 331.685 183.693 331.897 184.274 332.1C184.842 332.299 185.414 332.482 185.992 332.662C186.129 332.703 186.267 332.746 186.407 332.787C186.994 332.964 187.575 333.175 188.179 333.287C226.651 340.302 237.826 310.168 237.826 310.168C228.441 322.395 211.781 325.619 195.996 322.03C195.399 321.894 194.819 321.708 194.235 321.535C193.518 321.323 192.806 321.094 192.1 320.85L191.867 320.766C191.366 320.588 190.867 320.404 190.371 320.212C190.232 320.155 190.092 320.103 189.952 320.046C189.41 319.832 188.872 319.609 188.337 319.375C188.229 319.329 188.123 319.279 188.015 319.233C187.426 318.967 186.841 318.693 186.259 318.411C185.905 318.238 185.555 318.055 185.205 317.874C184.971 317.751 184.734 317.635 184.502 317.506C184.077 317.277 183.656 317.041 183.239 316.798C183.099 316.718 182.955 316.642 182.813 316.56C182.26 316.233 181.711 315.897 181.168 315.552C181.019 315.457 180.872 315.356 180.724 315.256C180.33 315.003 179.94 314.744 179.554 314.479C179.425 314.393 179.302 314.299 179.176 314.214C178.804 313.952 178.437 313.684 178.07 313.414C177.904 313.291 177.741 313.166 177.58 313.043C177.094 312.67 176.613 312.291 176.136 311.906C175.716 311.563 175.302 311.214 174.893 310.859L174.756 310.744C174.314 310.355 173.878 309.959 173.449 309.556C173.324 309.437 173.203 309.321 173.081 309.202C172.762 308.9 172.449 308.593 172.142 308.281C172.018 308.158 171.894 308.036 171.773 307.913C171.382 307.512 170.998 307.106 170.621 306.695L170.564 306.634C170.166 306.198 169.776 305.755 169.395 305.304C169.292 305.18 169.191 305.062 169.088 304.94C168.803 304.597 168.523 304.251 168.248 303.9C168.144 303.773 168.041 303.645 167.939 303.516C167.608 303.087 167.285 302.658 166.968 302.223C158.204 290.271 155.056 273.783 162.059 260.243" fill="#9747FF"/>
<path d="M180.543 258.485C174.791 266.763 175.103 277.845 179.591 286.601C180.342 288.073 181.192 289.492 182.135 290.849C182.997 292.084 183.952 293.554 185.096 294.547C185.512 295.004 185.945 295.449 186.388 295.887C186.499 296.002 186.614 296.11 186.727 296.223C187.157 296.64 187.594 297.051 188.046 297.449C188.065 297.463 188.082 297.481 188.1 297.495C188.106 297.5 188.11 297.502 188.113 297.508C188.612 297.946 189.129 298.368 189.654 298.782C189.77 298.871 189.885 298.963 190.003 299.055C190.528 299.458 191.064 299.854 191.614 300.232C191.631 300.243 191.644 300.254 191.661 300.267C191.903 300.435 192.15 300.59 192.396 300.752C192.514 300.828 192.626 300.91 192.745 300.982C193.137 301.234 193.534 301.479 193.939 301.714C193.997 301.749 194.051 301.779 194.108 301.812C194.456 302.012 194.809 302.21 195.163 302.401C195.287 302.471 195.412 302.532 195.539 302.596C195.784 302.725 196.029 302.855 196.277 302.978C196.314 302.997 196.352 303.014 196.389 303.03C196.895 303.28 197.406 303.52 197.928 303.747C198.04 303.797 198.155 303.841 198.268 303.887C198.686 304.064 199.107 304.237 199.531 304.399C199.71 304.467 199.892 304.533 200.071 304.598C200.455 304.74 200.842 304.871 201.23 305.002C201.407 305.058 201.579 305.115 201.755 305.17C202.308 305.341 202.855 305.558 203.431 305.654C233.134 310.575 239.993 287.705 239.993 287.705C233.81 296.609 221.839 300.856 209.066 297.54C208.33 297.346 207.6 297.13 206.878 296.89C206.304 296.704 205.734 296.503 205.17 296.286C204.745 296.123 204.323 295.953 203.904 295.775C203.79 295.727 203.674 295.682 203.563 295.631C203.041 295.404 202.524 295.164 202.014 294.912C201.751 294.784 201.494 294.648 201.237 294.516L200.788 294.285C200.458 294.105 200.13 293.92 199.805 293.73C199.728 293.686 199.648 293.643 199.57 293.598C199.168 293.362 198.772 293.12 198.38 292.87C198.258 292.793 198.142 292.71 198.021 292.631C197.762 292.463 197.504 292.293 197.249 292.12C196.704 291.741 196.169 291.35 195.643 290.946C195.522 290.851 195.401 290.757 195.282 290.662C189.69 286.247 185.258 280.214 183.15 273.373C180.942 266.278 181.418 258.314 185.244 251.851" fill="#9747FF"/>
<path d="M201.311 251.288C197.92 256.278 197.587 262.477 199.939 267.99C202.422 273.84 207.507 278.431 213.441 280.607C213.686 280.698 213.931 280.779 214.178 280.863C214.286 280.896 214.394 280.934 214.503 280.965C214.853 281.075 215.199 281.203 215.561 281.271C231.962 284.439 236.41 272.855 237.595 271.15C233.698 276.76 227.149 278.107 219.114 276.157C218.457 275.989 217.808 275.788 217.17 275.557C216.384 275.278 215.614 274.958 214.861 274.598C213.434 273.911 212.078 273.083 210.814 272.128C203.623 266.673 199.157 256.265 203.849 247.789M386.029 348.497L381.301 359.263H376.082L376.509 349.48L372.667 359.263H367.614L367.48 348.497L368.038 345.838H371.617L370.927 356.474L374.9 345.838H379.89L379.529 356.605L383.469 345.838H386.587L386.029 348.497ZM394.266 351.684C394.725 349.582 394.594 349.189 393.511 349.189H391.868L390.818 354.114L389.209 359.265H386.156L388.65 347.581L389.013 345.872H391.803L392.164 346.66C392.164 346.66 393.773 345.709 395.347 345.709C398.697 345.709 398.434 348.234 397.711 351.684L394.266 351.684ZM404.182 344.163C402.837 344.163 401.983 343.77 402.311 342.129C402.672 340.487 403.723 340.093 405.035 340.093C406.35 340.093 407.236 340.487 406.875 342.129C406.545 343.737 405.496 344.163 404.182 344.163ZM402.738 359.265H399.716L400.308 354.013L401.359 349.155L399.259 348.694L399.849 345.84H405.593L402.738 359.265ZM415.835 348.688L412.06 349.15L410.975 354.27C410.679 355.682 410.679 356.077 411.929 356.077H414.455L413.929 358.767C413.929 358.767 411.633 359.457 410.647 359.457C406.773 359.457 406.806 357.324 407.497 354.138L408.547 349.116L406.446 348.658L407.069 345.802H409.27L410.518 342.418H413.505L412.782 345.802H416.459L415.835 348.688ZM423.68 348.859C421.909 348.859 420.989 349.78 420.628 351.42L425.683 350.994C425.911 349.878 425.682 348.859 423.68 348.859ZM420.136 353.848C419.904 355.492 420.529 356.048 422.629 356.048H427.914L427.389 358.543C427.389 358.543 424.205 359.428 421.842 359.428C415.966 359.428 415.899 356.116 416.655 352.568C417.41 349.089 418.754 345.643 424.433 345.643C429.917 345.643 430.179 348.958 428.833 353.848H420.136ZM440.878 359.262H437.859L438.45 354.01L440.584 344.03L438.481 343.539L439.105 340.682H444.851L440.878 359.262ZM451.787 348.859C450.012 348.859 449.094 349.78 448.733 351.42L453.789 350.994C454.017 349.878 453.788 348.859 451.787 348.859ZM448.24 353.848C448.011 355.492 448.635 356.048 450.734 356.048H456.02L455.494 358.543C455.494 358.543 452.309 359.428 449.946 359.428C444.07 359.428 444.005 356.116 444.76 352.568C445.515 349.089 446.861 345.643 452.54 345.643C458.022 345.643 458.285 348.958 456.939 353.848H448.24ZM470.789 349.022C470.789 349.022 466.948 349.054 465.897 349.054C463.664 349.054 463.435 349.742 463.272 350.464L463.138 351.12L470.23 351.647C470.23 351.647 470.263 353.912 469.968 355.192C469.541 357.326 467.341 359.491 463.37 359.491C461.399 359.491 458.215 358.738 458.215 358.738L458.773 356.145H463.665C465.832 356.145 466.128 355.553 466.261 354.964L466.424 354.111L459.465 353.584C459.465 353.584 459.202 351.843 459.563 350.105C460.09 347.739 462.253 345.706 466.226 345.706C468.195 345.706 471.379 346.426 471.379 346.426L470.789 349.022ZM483.988 349.022C483.988 349.022 480.148 349.054 479.096 349.054C476.864 349.054 476.635 349.742 476.471 350.464L476.337 351.12L483.43 351.647C483.43 351.647 483.463 353.912 483.168 355.192C482.741 357.326 480.541 359.491 476.569 359.491C474.6 359.491 471.416 358.738 471.416 358.738L471.974 356.145H476.865C479.032 356.145 479.326 355.553 479.46 354.964L479.623 354.111L472.663 353.584C472.663 353.584 472.401 351.843 472.761 350.105C473.288 347.739 475.453 345.706 479.427 345.706C481.395 345.706 484.578 346.426 484.578 346.426L483.988 349.022ZM488.12 361.4H485.496L485.594 359.429C484.64 359.367 484.149 358.677 484.379 357.525C484.74 355.885 485.758 355.492 487.104 355.492C488.416 355.492 489.301 355.885 488.942 357.525L488.12 361.4ZM505.681 349.155C503.713 349.155 503.024 350.337 502.563 352.503C502.104 354.671 502.235 355.95 504.203 355.95H506.928L508.439 349.155H505.681ZM510.179 357.524L509.816 359.265L507.061 359.232L506.666 358.38C506.666 358.38 504.235 359.427 502.596 359.427C498.393 359.427 498.196 355.982 498.951 352.502C499.705 348.957 501.348 345.608 505.517 345.608C507.028 345.608 509.062 346.363 509.062 346.363L510.736 340.684H513.758L510.179 357.524ZM521.046 349.022C518.487 349.022 517.664 350.464 517.206 352.565C516.779 354.699 516.978 356.144 519.502 356.144C522.13 356.144 522.918 354.733 523.377 352.565C523.838 350.529 523.704 349.022 521.046 349.022ZM518.815 359.461C513.398 359.461 512.97 356.08 513.693 352.566C514.449 349.054 516.353 345.706 521.77 345.706C527.153 345.706 527.646 349.054 526.889 352.566C526.135 356.145 524.23 359.461 518.815 359.461ZM549.544 359.262L550.136 354.075L550.432 352.598C550.859 350.63 551.122 349.185 549.053 349.185H547.445C547.511 350.202 547.312 351.352 547.051 352.565L545.639 359.262H542.586L543.177 354.075L543.472 352.598C543.899 350.63 544.161 349.185 542.095 349.185H540.78L538.613 359.262H535.1L537.956 345.838H540.713L541.14 346.658C541.14 346.658 543.013 345.672 544.522 345.672C545.671 345.672 546.525 346.199 546.821 346.853C547.476 346.492 549.348 345.672 550.695 345.672C554.894 345.672 554.765 349.085 554.009 352.567L552.598 359.263L549.544 359.262ZM563.498 349.022C560.935 349.022 560.115 350.464 559.657 352.565C559.23 354.699 559.429 356.144 561.954 356.144C564.58 356.144 565.37 354.733 565.829 352.565C566.287 350.529 566.156 349.022 563.498 349.022ZM561.265 359.461C555.846 359.461 555.422 356.08 556.144 352.566C556.899 349.054 558.803 345.706 564.22 345.706C569.606 345.706 570.096 349.054 569.34 352.566C568.586 356.145 566.681 359.461 561.265 359.461ZM578.462 351.684C578.92 349.582 578.791 349.189 577.708 349.189H576.065L575.014 354.114L573.404 359.265H570.353L572.847 347.581L573.208 345.872H575.999L576.359 346.66C576.359 346.66 577.969 345.709 579.546 345.709C582.893 345.709 582.629 348.234 581.908 351.684L578.462 351.684ZM590.22 348.859C588.45 348.859 587.53 349.78 587.169 351.42L592.223 350.994C592.453 349.878 592.222 348.859 590.22 348.859ZM586.675 353.848C586.447 355.492 587.069 356.048 589.17 356.048H594.455L593.93 358.543C593.93 358.543 590.745 359.428 588.383 359.428C582.507 359.428 582.441 356.116 583.193 352.568C583.95 349.089 585.297 345.643 590.974 345.643C596.455 345.643 596.721 348.958 595.373 353.848H586.675ZM598.323 359.463C596.944 359.463 596.092 359.07 596.453 357.461C596.78 355.816 597.797 355.425 599.177 355.425C600.457 355.425 601.343 355.816 601.016 357.461C600.653 359.036 599.605 359.463 598.323 359.463Z" fill="#9747FF"/>
</g>
<defs>
<clipPath id="clip0_244_110">
<rect width="500" height="122.4" fill="white" transform="translate(150 239)"/>
</clipPath>
</defs>
</svg>
