<svg width="800" height="600" viewBox="0 0 800 600" fill="none" xmlns="http://www.w3.org/2000/svg">
<g clip-path="url(#clip0_244_196)">
<g clip-path="url(#clip1_244_196)">
<path fill-rule="evenodd" clip-rule="evenodd" d="M212.221 368.74H224.744V319.411L244.056 362.43C246.348 367.589 249.41 369.406 255.527 369.406C261.646 369.406 264.706 367.589 266.999 362.43L286.31 319.411V368.74H298.737V319.505C298.737 314.727 296.824 312.428 292.905 311.185C283.441 308.222 277.035 310.804 274.168 317.21L255.24 359.561L236.886 317.21C234.114 310.804 227.613 308.222 218.149 311.185C214.134 312.428 212.223 314.725 212.223 319.505V368.74H212.221ZM309.156 328.585H321.584V355.736C321.489 357.264 322.061 360.707 328.946 360.804C332.387 360.896 355.807 360.804 355.998 360.804V328.489H368.522C368.616 328.489 368.522 372.558 368.522 372.751C368.616 383.648 355.042 385.941 348.829 386.134H309.444V377.722C309.444 377.722 348.735 377.818 348.829 377.722C356.859 376.957 355.904 372.944 355.904 371.605V368.352H329.423C317.091 368.164 309.251 362.807 309.156 356.593C309.156 356.021 309.444 328.875 309.156 328.585ZM577.689 297.325C570.044 297.134 564.21 297.803 559.143 300.001C557.712 300.575 555.511 300.575 555.226 302.392C555.991 303.153 556.18 304.397 556.754 305.452C557.996 307.365 560.006 309.943 561.821 311.282C563.734 312.814 565.742 314.341 567.844 315.68C571.668 317.973 575.874 319.216 579.41 321.515C581.61 322.85 583.712 324.574 585.816 326.102C586.77 326.867 587.537 328.015 588.779 328.491V328.303C588.111 327.441 587.918 326.198 587.344 325.239L584.477 322.372C581.707 318.74 578.167 315.488 574.437 312.814C571.473 310.71 564.782 307.746 563.539 304.305C563.443 304.209 563.347 304.209 563.347 304.113C565.451 303.823 567.938 303.063 569.849 302.581C573.102 301.724 576.063 301.912 579.408 301.053C580.94 300.573 582.467 300.192 583.999 299.714V298.852C582.279 297.132 581.132 294.743 579.221 293.213C574.347 289.007 568.99 284.895 563.542 281.454C560.482 279.447 556.754 278.204 553.506 276.58C552.451 276.102 550.538 275.815 549.777 274.86C548.053 272.755 547.196 269.983 545.856 267.498C543.052 262.045 540.438 256.497 538.019 250.862C536.395 247.134 535.244 243.406 533.241 239.963C523.297 223.711 512.685 213.866 496.148 204.209C492.613 202.202 488.407 201.342 483.912 200.29C481.523 200.098 479.134 200.003 476.742 199.81C475.307 199.236 473.779 197.421 472.344 196.56C466.895 193.119 452.842 185.566 448.824 195.508C446.242 201.722 452.649 207.841 454.941 210.997C456.57 213.195 458.573 215.683 459.724 218.166C460.484 219.79 460.581 221.417 461.251 223.137C462.876 227.439 464.215 232.123 466.222 236.042C467.272 238.05 468.418 240.154 469.758 241.971C470.522 243.023 471.958 243.5 472.147 245.221C470.807 247.132 470.715 250.001 469.95 252.39C466.604 263.193 467.846 276.481 472.817 284.51C474.349 286.899 477.884 292.157 482.857 290.151C487.16 288.334 486.202 282.98 487.445 278.106C487.734 277.054 487.541 276.289 488.113 275.524V275.714C489.356 278.391 490.695 280.972 492.034 283.552C494.901 288.238 500.065 293.209 504.463 296.457C506.66 298.177 508.477 301.143 511.44 302.096V301.903H511.155C510.581 301.046 509.719 300.663 509.051 299.992C507.33 298.272 505.419 296.168 503.984 294.257C500.067 288.902 496.529 282.976 493.279 276.856C491.747 273.893 490.408 270.643 489.17 267.68C488.687 266.533 488.687 264.813 487.638 264.142C486.202 266.341 484.199 268.157 483.046 270.739C481.326 274.851 481.041 279.916 480.468 285.08C480.083 285.27 480.179 285.174 479.986 285.367C476.931 284.602 475.877 281.446 474.731 278.77C471.96 271.982 471.384 261.085 473.869 253.245C474.538 251.237 477.505 244.927 476.263 243.016C475.684 241.199 473.869 240.053 472.819 238.62C471.48 236.899 470.238 234.604 469.284 232.597C466.991 227.242 465.937 221.316 463.45 215.964C462.207 213.382 460.298 210.8 458.672 208.602C456.855 206.02 454.847 204.205 453.416 201.145C452.938 200.093 452.27 198.373 452.938 197.224C453.223 196.459 453.512 196.172 454.273 195.885C455.516 194.93 459.055 196.269 460.39 196.744C463.833 198.274 466.797 199.613 469.76 201.621C471.195 202.577 472.631 204.391 474.351 204.871H476.265C479.324 205.54 482.763 205.062 485.63 205.923C490.697 207.451 495.285 209.842 499.398 212.52C512.016 220.455 522.247 231.735 529.32 245.214C530.466 247.413 530.944 249.42 531.902 251.715C533.911 256.401 536.489 261.179 538.497 265.672C540.41 270.262 542.418 274.851 545.188 278.577C546.72 280.585 552.454 281.637 555.035 282.686C556.852 283.451 559.813 284.311 561.538 285.365C564.883 287.276 568.037 289.667 571.193 291.865C572.718 292.928 577.496 295.317 577.689 297.325Z" fill="#9747FF"/>
<path fill-rule="evenodd" clip-rule="evenodd" d="M480.179 214.251C478.859 214.252 477.544 214.413 476.263 214.731V214.922H476.548C477.313 216.452 478.652 217.504 479.607 218.841C480.276 220.371 481.043 221.901 481.711 223.43L481.996 223.143C483.335 222.284 483.91 220.754 483.91 218.365C483.432 217.791 483.335 217.123 482.86 216.452C482.189 215.494 481.043 215.016 480.179 214.251Z" fill="#9747FF"/>
<path fill-rule="evenodd" clip-rule="evenodd" d="M378.178 368.74H414.026C418.232 368.74 422.342 367.878 425.592 366.347C430.944 363.865 433.622 360.516 433.622 356.12V346.943C433.622 343.408 430.563 339.967 424.735 337.766C421.579 336.524 417.754 335.949 414.026 335.949H398.923C393.856 335.949 391.467 334.417 390.892 331.075C390.796 330.694 390.796 330.31 390.796 329.929V324.287C390.796 323.906 390.796 323.619 390.892 323.237C391.467 320.655 392.804 319.891 397.202 319.509C397.584 319.509 398.062 319.413 398.445 319.413H434.102V311.097H399.019C393.952 311.097 391.37 311.479 388.981 312.147C381.525 314.536 378.275 318.17 378.275 324.576V331.842C378.275 337.483 384.679 342.261 395.291 343.408C396.534 343.408 397.68 343.504 398.923 343.504H411.83C412.308 343.504 412.783 343.504 413.165 343.601C417.182 343.982 418.806 344.651 420.049 346.082C420.718 346.847 421.007 347.517 421.007 348.379V355.644C421.007 356.506 420.433 357.654 419.19 358.607C418.136 359.565 416.319 360.139 413.93 360.328C413.452 360.328 413.073 360.424 412.591 360.424H378.178V368.74ZM511.44 354.204C511.44 362.809 517.75 367.587 530.657 368.545C531.803 368.641 533.046 368.738 534.192 368.738H566.695V360.418H533.999C526.637 360.418 523.867 358.601 523.867 354.204V311.093H511.438V354.204H511.44ZM441.559 354.682V325.05C441.559 317.497 446.814 312.91 457.33 311.474C458.385 311.282 459.627 311.282 460.677 311.282H484.383C485.529 311.282 486.583 311.282 487.826 311.474C498.246 312.91 503.598 317.497 503.598 325.05V354.682C503.598 360.804 501.305 364.052 496.142 366.156L508.474 377.246H493.945L484.002 368.354L473.961 368.928H460.675C458.382 368.928 455.991 368.643 453.313 367.878C445.383 365.772 441.559 361.566 441.559 354.682ZM455.038 353.922C455.038 354.399 455.134 354.779 455.231 355.261C455.995 358.7 459.244 360.613 464.118 360.613H475.497L465.078 351.243H479.607L488.687 359.37C490.316 358.509 491.462 357.17 491.843 355.449C491.94 354.971 491.94 354.592 491.94 354.207V325.721C491.94 325.431 491.94 325.052 491.843 324.666C491.079 321.418 487.83 319.603 483.048 319.603H464.12C458.575 319.603 455.04 321.992 455.04 325.721L455.038 353.922ZM572.433 368.74H574.25V361.856H576.736V360.42H569.948V361.856H572.433V368.74ZM586.39 368.74H588.014V360.42H585.529L583.333 366.158L581.136 360.42H578.555V368.74H580.275V362.43L582.664 368.74H583.907L586.296 362.43H586.392V368.74H586.39Z" fill="#9747FF"/>
</g>
</g>
<defs>
<clipPath id="clip0_244_196">
<rect width="413" height="413" fill="white" transform="translate(194 94)"/>
</clipPath>
<clipPath id="clip1_244_196">
<rect width="413" height="413" fill="white" transform="translate(194 94)"/>
</clipPath>
</defs>
</svg>
