<svg width="800" height="600" viewBox="0 0 800 600" fill="none" xmlns="http://www.w3.org/2000/svg">
<g clip-path="url(#clip0_244_102)">
<path d="M400.478 448.251C558.696 448.251 686.956 381.485 686.956 299.125C686.956 216.766 558.696 150 400.478 150C242.261 150 114 216.766 114 299.125C114 381.485 242.261 448.251 400.478 448.251Z" fill="#9747FF"/>
<path fill-rule="evenodd" clip-rule="evenodd" d="M194.449 387.423L225.845 228.486H298.443C329.837 230.449 345.535 246.145 345.535 273.618C345.535 320.71 308.254 348.18 274.895 346.217H239.58L231.731 387.423H194.449ZM247.427 316.786L257.239 257.919H282.747C296.482 257.919 306.292 263.806 306.292 275.578C304.331 308.937 288.633 314.823 270.974 316.786H247.427ZM338.241 346.217L369.635 187.282H406.917L399.068 228.486H434.385C465.782 230.449 477.554 246.145 473.631 265.769L459.895 346.217H420.652L434.388 273.618C436.348 263.806 436.348 257.919 422.615 257.919H393.182L375.523 346.217H338.241ZM457.382 387.423L488.776 228.486H561.376C592.772 230.449 608.47 246.145 608.47 273.618C608.47 320.71 571.188 348.18 537.831 346.217H502.511L494.662 387.423H457.382ZM510.358 316.786L520.17 257.919H545.68C559.415 257.919 569.225 263.806 569.225 275.578C567.264 308.937 551.566 314.823 533.908 316.786H510.36H510.358Z" fill="white"/>
</g>
<defs>
<clipPath id="clip0_244_102">
<rect width="572.956" height="300" fill="white" transform="translate(114 150)"/>
</clipPath>
</defs>
</svg>
