<svg width="800" height="600" viewBox="0 0 800 600" fill="none" xmlns="http://www.w3.org/2000/svg">
<path d="M550 300.007C550 280.127 525.112 261.286 486.955 249.603C495.76 210.699 491.847 179.748 474.603 169.838C470.628 167.514 465.98 166.413 460.905 166.413V180.053C463.718 180.053 465.98 180.604 467.876 181.644C476.192 186.415 479.8 204.582 476.987 227.949C476.315 233.699 475.214 239.755 473.869 245.933C461.883 242.997 448.797 240.734 435.039 239.265C426.784 227.949 418.223 217.673 409.6 208.681C429.535 190.146 448.247 179.992 460.966 179.992V166.351C444.15 166.351 422.136 178.341 399.878 199.138C377.619 178.463 355.605 166.596 338.789 166.596V180.237C351.447 180.237 370.22 190.33 390.155 208.742C381.594 217.734 373.033 227.949 364.9 239.265C351.08 240.734 337.994 242.997 326.009 245.994C324.603 239.877 323.563 233.944 322.829 228.255C319.955 204.888 323.502 186.721 331.757 181.888C333.592 180.787 335.976 180.298 338.789 180.298V166.657C333.653 166.657 329.005 167.758 324.969 170.083C307.786 179.992 303.934 210.883 312.801 249.664C274.766 261.409 250 280.188 250 300.007C250 319.887 274.888 338.727 313.045 350.41C304.24 389.314 308.153 420.266 325.397 430.175C329.372 432.5 334.02 433.601 339.156 433.601C355.972 433.601 377.986 421.612 400.245 400.814C422.503 421.489 444.517 433.356 461.333 433.356C466.47 433.356 471.117 432.255 475.153 429.931C492.336 420.021 496.188 389.131 487.322 350.349C525.234 338.666 550 319.826 550 300.007ZM470.383 259.207C468.121 267.098 465.308 275.233 462.128 283.369C459.621 278.475 456.991 273.582 454.117 268.688C451.305 263.794 448.308 259.023 445.312 254.374C453.995 255.659 462.373 257.249 470.383 259.207ZM442.377 324.352C437.607 332.61 432.715 340.44 427.64 347.719C418.528 348.514 409.295 348.942 400 348.942C390.766 348.942 381.533 348.514 372.483 347.78C367.407 340.501 362.454 332.732 357.684 324.536C353.037 316.523 348.818 308.387 344.965 300.19C348.757 291.994 353.037 283.797 357.623 275.784C362.393 267.526 367.285 259.696 372.36 252.417C381.472 251.622 390.705 251.194 400 251.194C409.234 251.194 418.467 251.622 427.517 252.356C432.593 259.635 437.546 267.403 442.316 275.6C446.963 283.613 451.182 291.749 455.035 299.946C451.182 308.142 446.963 316.339 442.377 324.352ZM462.128 316.4C465.43 324.597 468.243 332.794 470.567 340.746C462.556 342.703 454.117 344.355 445.373 345.639C448.369 340.929 451.366 336.097 454.179 331.142C456.991 326.248 459.621 321.294 462.128 316.4ZM400.122 381.668C394.435 375.796 388.748 369.251 383.123 362.094C388.626 362.338 394.252 362.522 399.939 362.522C405.687 362.522 411.374 362.4 416.938 362.094C411.435 369.251 405.748 375.796 400.122 381.668ZM354.627 345.639C345.944 344.355 337.566 342.764 329.556 340.807C331.818 332.916 334.631 324.78 337.811 316.645C340.318 321.538 342.947 326.432 345.821 331.326C348.695 336.219 351.631 340.99 354.627 345.639ZM399.817 218.345C405.503 224.218 411.19 230.763 416.816 237.92C411.313 237.675 405.687 237.492 400 237.492C394.252 237.492 388.565 237.614 383 237.92C388.504 230.763 394.191 224.218 399.817 218.345ZM354.566 254.374C351.57 259.084 348.573 263.917 345.76 268.871C342.947 273.765 340.318 278.659 337.811 283.552C334.509 275.355 331.696 267.159 329.372 259.207C337.383 257.31 345.821 255.659 354.566 254.374ZM299.225 330.959C277.578 321.722 263.575 309.61 263.575 300.007C263.575 290.403 277.578 278.23 299.225 269.055C304.484 266.792 310.232 264.773 316.164 262.877C319.649 274.866 324.236 287.345 329.923 300.129C324.297 312.852 319.772 325.27 316.347 337.198C310.294 335.302 304.545 333.222 299.225 330.959ZM332.124 418.37C323.808 413.598 320.2 395.431 323.013 372.064C323.685 366.314 324.786 360.259 326.131 354.081C338.117 357.017 351.203 359.28 364.961 360.748C373.216 372.064 381.777 382.341 390.4 391.333C370.465 409.867 351.753 420.021 339.034 420.021C336.282 419.96 333.958 419.41 332.124 418.37ZM477.171 371.759C480.045 395.125 476.498 413.293 468.243 418.125C466.408 419.226 464.024 419.715 461.211 419.715C448.553 419.715 429.78 409.622 409.845 391.21C418.406 382.219 426.967 372.003 435.1 360.687C448.92 359.219 462.006 356.956 473.991 353.958C475.397 360.136 476.498 366.07 477.171 371.759ZM500.713 330.959C495.455 333.222 489.706 335.24 483.775 337.137C480.289 325.147 475.703 312.669 470.016 299.884C475.642 287.161 480.167 274.744 483.592 262.816C489.645 264.712 495.393 266.792 500.775 269.055C522.422 278.292 536.425 290.403 536.425 300.007C536.364 309.61 522.36 321.783 500.713 330.959Z" fill="#9747FF"/>
<path d="M399.939 327.961C415.373 327.961 427.884 315.446 427.884 300.007C427.884 284.568 415.373 272.052 399.939 272.052C384.505 272.052 371.994 284.568 371.994 300.007C371.994 315.446 384.505 327.961 399.939 327.961Z" fill="#9747FF"/>
</svg>
