<svg width="800" height="600" viewBox="0 0 800 600" fill="none" xmlns="http://www.w3.org/2000/svg">
<g clip-path="url(#clip0_244_144)">
<path d="M508.164 317.258C497.676 317.317 488.594 319.836 480.976 323.586C478.164 318.02 475.351 313.156 474.883 309.524C474.356 305.305 473.711 302.726 474.356 297.688C475 292.648 477.93 285.5 477.93 284.914C477.87 284.387 477.284 281.808 471.25 281.75C465.215 281.691 460 282.922 459.414 284.504C458.828 286.086 457.656 289.719 456.894 293.469C455.84 298.976 444.824 318.488 438.555 328.742C436.504 324.758 434.746 321.242 434.394 318.429C433.867 314.211 433.222 311.632 433.867 306.594C434.512 301.554 437.441 294.406 437.441 293.82C437.383 293.293 436.797 290.715 430.762 290.656C424.726 290.598 419.512 291.828 418.926 293.41C418.34 294.992 417.696 298.742 416.407 302.375C415.176 306.008 400.527 338.586 396.719 347.082C394.785 351.418 393.086 354.875 391.855 357.219C390.625 359.562 391.797 357.394 391.68 357.629C390.625 359.621 390.039 360.734 390.039 360.734V360.793C389.219 362.258 388.34 363.664 387.929 363.664C387.636 363.664 387.05 359.738 388.046 354.348C390.214 343.039 395.488 325.403 395.43 324.758C395.43 324.465 396.425 321.359 392.031 319.778C387.753 318.196 386.23 320.833 385.878 320.833C385.527 320.833 385.234 321.77 385.234 321.77C385.234 321.77 389.98 301.907 376.152 301.907C367.48 301.907 355.527 311.341 349.609 319.954C345.859 322.005 337.89 326.34 329.452 330.97C326.23 332.728 322.89 334.603 319.726 336.302L319.082 335.598C302.324 317.726 271.328 305.07 272.617 281.047C273.086 272.316 276.133 249.289 332.149 221.398C378.028 198.547 414.766 204.816 421.152 218.762C430.234 238.683 401.523 275.715 353.829 281.047C335.665 283.098 326.113 276.066 323.711 273.43C321.192 270.676 320.84 270.558 319.903 271.086C318.379 271.906 319.317 274.367 319.903 275.832C321.309 279.523 327.168 286.086 337.129 289.367C345.859 292.238 367.188 293.82 392.969 283.859C421.856 272.668 444.415 241.613 437.793 215.656C431.055 189.23 387.227 180.558 345.801 195.266C321.133 204.055 294.414 217.766 275.195 235.754C252.344 257.082 248.711 275.715 250.234 283.449C255.567 311.047 293.594 329.035 308.828 342.336C308.066 342.745 307.363 343.156 306.719 343.508C299.101 347.257 270.098 362.433 262.832 378.488C254.629 396.652 264.121 409.719 270.449 411.476C290.019 416.926 310.058 407.141 320.898 391.027C331.679 374.914 330.391 353.996 325.41 344.445L325.234 344.094L331.21 340.578C335.078 338.293 338.887 336.183 342.226 334.366C340.351 339.464 339.003 345.499 338.301 354.288C337.48 364.601 341.699 377.96 347.266 383.234C349.726 385.518 352.656 385.577 354.473 385.577C360.918 385.577 363.848 380.245 367.07 373.859C371.055 366.066 374.57 357.042 374.57 357.042C374.57 357.042 370.176 381.476 382.187 381.476C386.582 381.476 390.976 375.792 392.969 372.863V372.921C392.969 372.921 393.086 372.745 393.32 372.335C393.566 371.972 393.801 371.601 394.023 371.223V371.105C395.781 368.058 399.707 361.086 405.566 349.543C413.124 334.66 420.391 316.027 420.391 316.027C420.391 316.027 421.094 320.598 423.262 328.098C424.55 332.551 427.363 337.414 429.531 342.16C427.773 344.621 426.718 346.028 426.718 346.028L426.777 346.086C425.371 347.961 423.788 349.954 422.148 351.946C416.172 359.094 409.023 367.239 408.086 369.583C406.973 372.336 407.207 374.387 409.375 376.028C410.957 377.2 413.769 377.434 416.758 377.2C422.148 376.848 425.898 375.501 427.773 374.68C430.703 373.625 434.043 372.043 437.266 369.7C443.125 365.364 446.699 359.212 446.348 351.009C446.172 346.497 444.707 342.044 442.891 337.825C443.418 337.064 443.946 336.301 444.473 335.482C453.73 321.946 460.879 307.064 460.879 307.064C460.879 307.064 461.582 311.634 463.75 319.134C464.863 322.942 467.09 327.103 469.082 331.205C460.41 338.295 454.961 346.498 453.086 351.888C449.629 361.849 452.324 366.361 457.422 367.416C459.706 367.884 462.988 366.83 465.449 365.775C468.495 364.779 472.187 363.079 475.586 360.56C481.445 356.224 487.07 350.189 486.777 342.045C486.601 338.295 485.605 334.603 484.258 331.088C491.641 328.041 501.191 326.283 513.32 327.748C539.394 330.795 544.551 347.084 543.555 353.881C542.559 360.678 537.11 364.427 535.293 365.599C533.476 366.713 532.891 367.123 533.066 367.943C533.301 369.174 534.121 369.115 535.703 368.881C537.871 368.529 549.414 363.315 549.883 350.776C550.586 334.661 535.293 317.083 508.164 317.258ZM307.07 385.051C298.457 394.484 286.328 398.058 281.172 395.012C275.605 391.789 277.773 377.902 288.379 367.883C294.824 361.789 303.203 356.164 308.711 352.707C309.941 351.945 311.816 350.833 314.043 349.484C314.394 349.25 314.629 349.133 314.629 349.133C315.039 348.898 315.508 348.605 315.976 348.312C319.902 362.609 316.152 375.148 307.07 385.051ZM370.058 342.219C367.07 349.543 360.742 368.351 356.933 367.297C353.652 366.418 351.66 352.18 356.288 338.117C358.632 331.027 363.613 322.59 366.542 319.308C371.289 314.034 376.445 312.277 377.734 314.445C379.258 317.258 371.933 337.648 370.058 342.219ZM422.031 367.062C420.742 367.708 419.57 368.176 419.043 367.825C418.633 367.59 419.57 366.711 419.57 366.711C419.57 366.711 426.074 359.739 428.652 356.516C430.116 354.642 431.874 352.474 433.749 350.012V350.715C433.75 359.152 425.664 364.777 422.031 367.062ZM462.109 357.922C461.171 357.219 461.289 355.051 464.452 348.254C465.683 345.558 468.495 341.047 473.359 336.769C473.945 338.527 474.297 340.226 474.238 341.808C474.18 352.355 466.68 356.281 462.109 357.922Z" fill="#9747FF"/>
</g>
<defs>
<clipPath id="clip0_244_144">
<rect width="300" height="225" fill="white" transform="translate(250 188)"/>
</clipPath>
</defs>
</svg>
