<svg width="800" height="600" viewBox="0 0 800 600" fill="none" xmlns="http://www.w3.org/2000/svg">
<g clip-path="url(#clip0_244_151)">
<mask id="mask0_244_151" style="mask-type:luminance" maskUnits="userSpaceOnUse" x="250" y="150" width="300" height="300">
<path d="M250.001 150H549.999V450H250.001V150Z" fill="white"/>
</mask>
<g mask="url(#mask0_244_151)">
<path d="M271.323 299.996C271.323 350.933 300.923 394.948 343.846 415.809L282.464 247.627C275.105 264.105 271.309 281.951 271.323 299.996ZM486.871 293.503C486.871 277.6 481.158 266.586 476.259 258.014C469.736 247.414 463.625 238.438 463.625 227.839C463.625 216.01 472.594 204.999 485.23 204.999C485.801 204.999 486.342 205.07 486.9 205.102C464.004 184.128 433.503 171.322 400.002 171.322C355.047 171.322 315.497 194.387 292.488 229.322C295.507 229.413 298.354 229.474 300.769 229.474C314.228 229.474 335.063 227.841 335.063 227.841C341.999 227.432 342.817 237.62 335.89 238.441C335.89 238.441 328.917 239.261 321.16 239.667L368.02 379.049L396.183 294.593L376.132 239.665C369.202 239.258 362.638 238.438 362.638 238.438C355.704 238.032 356.517 227.43 363.451 227.839C363.451 227.839 384.702 229.472 397.346 229.472C410.803 229.472 431.64 227.839 431.64 227.839C438.581 227.43 439.397 237.618 432.465 238.438C432.465 238.438 425.479 239.258 417.737 239.665L464.239 377.992L477.072 335.101C482.637 317.303 486.871 304.519 486.871 293.503Z" fill="#9747FF"/>
<path d="M402.26 311.252L363.652 423.438C375.455 426.917 387.697 428.683 400.003 428.683C414.988 428.683 429.358 426.09 442.734 421.389C442.375 420.827 442.069 420.234 441.818 419.616L402.26 311.252ZM512.914 238.259C513.467 242.358 513.78 246.761 513.78 251.491C513.78 264.549 511.342 279.228 503.996 297.582L464.69 411.225C502.946 388.917 528.677 347.471 528.677 299.996C528.712 278.417 523.289 257.18 512.914 238.259Z" fill="#9747FF"/>
<path d="M400.003 150C317.294 150 250.001 217.288 250.001 299.996C250.001 382.715 317.292 450.002 400.003 450.002C482.709 450.002 550.011 382.717 550.011 299.996C550.009 217.288 482.709 150 400.003 150ZM400.003 443.125C321.087 443.125 256.879 378.917 256.879 299.996C256.879 221.083 321.084 156.88 400.003 156.88C478.916 156.88 543.119 221.083 543.119 299.996C543.119 378.917 478.914 443.125 400.003 443.125Z" fill="#9747FF"/>
</g>
</g>
<defs>
<clipPath id="clip0_244_151">
<rect width="300" height="300" fill="white" transform="translate(250 150)"/>
</clipPath>
</defs>
</svg>
