<svg width="40" height="45" viewBox="0 0 40 45" fill="none" xmlns="http://www.w3.org/2000/svg">
<circle cx="12.1666" cy="29.1668" r="1.83334" fill="#171C21"/>
<circle cx="26.4998" cy="7.83334" r="0.833336" fill="#171C21"/>
<circle cx="28" cy="24.6667" r="1" fill="#171C21"/>
<circle cx="33.1668" cy="9.16669" r="1.5" fill="#171C21"/>
<circle cx="34.5001" cy="3.50003" r="1.83334" fill="#171C21"/>
<circle cx="32.1668" cy="11.5" r="0.833336" fill="#171C21"/>
<circle cx="37.8335" cy="1.5" r="1.5" fill="#171C21"/>
<circle cx="34.8334" cy="6.83336" r="1.16667" fill="#171C21"/>
<circle cx="31.3333" cy="2.33332" r="1" fill="#171C21"/>
<circle cx="29.8333" cy="6.83334" r="1.83334" fill="#171C21"/>
<circle cx="35.1668" cy="38.5001" r="1.83334" fill="#171C21"/>
<circle cx="26.5002" cy="19.5001" r="1.5" fill="#171C21"/>
<circle cx="23.1668" cy="14.1667" r="1.83334" fill="#171C21"/>
<circle cx="19.6668" cy="13.3334" r="1.33334" fill="#171C21"/>
<circle cx="35" cy="43.0001" r="1" fill="#171C21"/>
<circle cx="25.1667" cy="5.49998" r="1.16667" fill="#171C21"/>
<circle cx="28.1666" cy="12.5" r="1.83334" fill="#171C21"/>
<circle cx="38" cy="42.3335" r="2.00001" fill="#171C21"/>
<circle cx="24.0002" cy="8.33338" r="1" fill="#171C21"/>
<circle cx="27.6665" cy="3.00001" r="2.00001" fill="#171C21"/>
<circle cx="24.8333" cy="16.8333" r="0.833336" fill="#171C21"/>
<circle cx="22.6668" cy="10.6667" r="1.33334" fill="#171C21"/>
<circle cx="20.1667" cy="25.1667" r="2.16667" fill="#171C21"/>
<circle cx="27.1665" cy="16.1667" r="1.5" fill="#171C21"/>
<circle cx="23.0002" cy="28.3334" r="1.66667" fill="#171C21"/>
<circle cx="23.0002" cy="33.3334" r="1.66667" fill="#171C21"/>
<circle cx="26.6668" cy="32.0001" r="2.00001" fill="#171C21"/>
<circle cx="28.3333" cy="28.0001" r="2.00001" fill="#171C21"/>
<circle cx="35" cy="35.3334" r="1" fill="#171C21"/>
<circle cx="24.8336" cy="24.8334" r="1.83334" fill="#171C21"/>
<circle cx="30.6668" cy="31.0001" r="1.33334" fill="#171C21"/>
<circle cx="30.8335" cy="38.1668" r="1.5" fill="#171C21"/>
<circle cx="31.8333" cy="41.5001" r="1.83334" fill="#171C21"/>
<circle cx="27.8336" cy="40.5001" r="1.83334" fill="#171C21"/>
<circle cx="31.6668" cy="34.6668" r="2.00001" fill="#171C21"/>
<circle cx="25.3335" cy="36.6668" r="2.00001" fill="#171C21"/>
<circle cx="20.5001" cy="30.8334" r="0.833336" fill="#171C21"/>
<circle cx="9.66651" cy="31.3334" r="1" fill="#171C21"/>
<circle cx="4.66675" cy="39.3334" r="1" fill="#171C21"/>
<circle cx="2.83334" cy="2.83334" r="1.83334" fill="#171C21"/>
<circle cx="7.33358" cy="32.3334" r="1.33334" fill="#171C21"/>
<circle cx="12.667" cy="38.3334" r="2.00001" fill="#171C21"/>
<circle cx="11.6666" cy="42.0001" r="1.33334" fill="#171C21"/>
<circle cx="11.8333" cy="34.5001" r="1.83334" fill="#171C21"/>
<circle cx="15.6667" cy="35.6667" r="1.66667" fill="#171C21"/>
<circle cx="7.33326" cy="42.0001" r="2.00001" fill="#171C21"/>
<circle cx="17.5001" cy="30.8334" r="1.83334" fill="#171C21"/>
<circle cx="18.6667" cy="22.3334" r="0.666668" fill="#171C21"/>
<circle cx="6.83342" cy="4.50005" r="2.16667" fill="#171C21"/>
<circle cx="2.16667" cy="42.1668" r="2.16667" fill="#171C21"/>
<circle cx="9" cy="29.0001" r="1" fill="#171C21"/>
<circle cx="7.16667" cy="37.1668" r="2.16667" fill="#171C21"/>
<circle cx="10" cy="15.3334" r="1" fill="#171C21"/>
<circle cx="15.3333" cy="12.3334" r="2.00001" fill="#171C21"/>
<circle cx="12.667" cy="17.3334" r="2.00001" fill="#171C21"/>
<circle cx="15.3333" cy="22.3334" r="2.00001" fill="#171C21"/>
<circle cx="15.8334" cy="26.8334" r="2.16667" fill="#171C21"/>
<circle cx="12.6668" cy="10.3334" r="1" fill="#171C21"/>
<circle cx="12.5001" cy="26.1668" r="0.833336" fill="#171C21"/>
<circle cx="18.1666" cy="11.1667" r="0.833336" fill="#171C21"/>
<circle cx="17.1668" cy="16.8334" r="2.50001" fill="#171C21"/>
<circle cx="21.5" cy="19.8334" r="2.50001" fill="#171C21"/>
<circle cx="9.3335" cy="11.6667" r="2.00001" fill="#171C21"/>
<circle cx="15.1666" cy="7.16671" r="1.83334" fill="#171C21"/>
<circle cx="10.8333" cy="7.50003" r="1.83334" fill="#171C21"/>
<circle cx="7.33358" cy="8.33334" r="1.33334" fill="#171C21"/>
<circle cx="13.6666" cy="3.66671" r="1.33334" fill="#171C21"/>
<circle cx="10.5" cy="3.16669" r="1.5" fill="#171C21"/>
<circle cx="5.50017" cy="1.16667" r="1.16667" fill="#171C21"/>
</svg>
